<svg id="Ebene_1" data-name="Ebene 1" xmlns="http://www.w3.org/2000/svg" viewBox="0 0 576 512"><defs><style>.cls-1{fill:#e2e2e2;}</style></defs><title>download-light</title><path class="cls-1" d="M528,288H435.9L482,241.9c30.1-30.1,8.8-81.9-33.9-81.9h-64V48a48,48,0,0,0-48-48h-96a48,48,0,0,0-48,48V160h-64c-42.6,0-64.2,51.7-33.9,81.9L140.3,288H48A48,48,0,0,0,0,336V464a48,48,0,0,0,48,48H528a48,48,0,0,0,48-48V336A48,48,0,0,0,528,288ZM128,208H240V48h96V208H448L288,368ZM528,464H48V336H188.1L254,401.9a48,48,0,0,0,67.9,0L387.8,336H528Zm-88-64a24,24,0,1,1,24,24A23.94,23.94,0,0,1,440,400Z"/></svg>