<svg id="Ebene_1" data-name="Ebene 1" xmlns="http://www.w3.org/2000/svg" viewBox="0 0 448 512"><defs><style>.cls-1{fill:#e2e2e2;}</style></defs><title>trash-light</title><path class="cls-1" d="M268,416h24a12,12,0,0,0,12-12V188a12,12,0,0,0-12-12H268a12,12,0,0,0-12,12V404A12,12,0,0,0,268,416ZM432,80H349.59l-34-56.7A48,48,0,0,0,274.41,0H173.59a48,48,0,0,0-41.16,23.3L98.41,80H16A16,16,0,0,0,0,96v16a16,16,0,0,0,16,16H32V464a48,48,0,0,0,48,48H368a48,48,0,0,0,48-48h0V128h16a16,16,0,0,0,16-16V96A16,16,0,0,0,432,80ZM171.84,50.91A6,6,0,0,1,177,48h94a6,6,0,0,1,5.15,2.91L293.61,80H154.39ZM368,464H80V128H368ZM156,416h24a12,12,0,0,0,12-12V188a12,12,0,0,0-12-12H156a12,12,0,0,0-12,12V404A12,12,0,0,0,156,416Z" transform="translate(0 0)"/></svg>