<svg id="Ebene_1" data-name="Ebene 1" xmlns="http://www.w3.org/2000/svg" viewBox="0 0 576 511.96"><defs><style>.cls-1{fill:#e2e2e2;}</style></defs><title>upload-light</title><path class="cls-1" d="M528,288H384V256h64c42.6,0,64.2-51.7,33.9-81.9l-160-160a48,48,0,0,0-67.9,0L94,174.1C63.9,204.2,85.3,256,128,256h64v32H48A48,48,0,0,0,0,336V464a48,48,0,0,0,48,48H528a48,48,0,0,0,48-48V336A48,48,0,0,0,528,288ZM128,208,288,48,448,208H336V368H240V208ZM528,464H48V336H192v32a48,48,0,0,0,48,48h96a48,48,0,0,0,48-48V336H528Zm-40-64a24,24,0,1,1-24-24A23.94,23.94,0,0,1,488,400Z" transform="translate(0 -0.04)"/></svg>